<svg xmlns:xlink="http://www.w3.org/1999/xlink" width="25" height="24" viewBox="0 0 25 24" xmlns="http://www.w3.org/2000/svg">
<defs>
<radialGradient width="25" height="24" cx="17.541%" cy="17.466%" fx="17.541%" fy="17.466%" r="93.287%" id="a2">
<stop stop-color="#9DD5F6" offset="0%"></stop>
<stop stop-color="#98D3F5" offset="7.11%"></stop>
<stop stop-color="#89CEF3" offset="15.75%"></stop>
<stop stop-color="#70C6EF" offset="25.16%"></stop>
<stop stop-color="#4EBBEA" offset="35.14%"></stop>
<stop stop-color="#23ADE3" offset="45.46%"></stop>
<stop stop-color="#0DA6E0" offset="50%"></stop>
<stop stop-color="#2E77BC" offset="100%"></stop>
</radialGradient>
<radialGradient width="25" height="24" cx="17.541%" cy="17.466%" fx="17.541%" fy="17.466%" r="93.287%" id="a2">
<stop stop-color="#9DD5F6" offset="0%"></stop>
<stop stop-color="#98D3F5" offset="7.11%"></stop>
<stop stop-color="#89CEF3" offset="15.75%"></stop>
<stop stop-color="#70C6EF" offset="25.16%"></stop>
<stop stop-color="#4EBBEA" offset="35.14%"></stop>
<stop stop-color="#23ADE3" offset="45.46%"></stop>
<stop stop-color="#0DA6E0" offset="50%"></stop>
<stop stop-color="#2E77BC" offset="100%"></stop>
</radialGradient></defs>
<g fill="none" fill-rule="evenodd">
<path d="M23.88.05H.054v23.913H23.88v-7.892a.904.904 0 0 0 .142-.525c0-.245-.047-.397-.142-.525" fill="url(&quot;#a2&quot;)"></path>
<path d="M2.202 10.398L1.743 9.28l-.455 1.117h.914zm10.097-.445c-.092.056-.2.058-.33.058h-.814v-.622h.824c.117 0 .239.005.318.05.087.04.14.128.14.248 0 .122-.05.22-.138.266zm5.804.445L17.64 9.28l-.461 1.117h.924zM7.285 11.607h-.687l-.002-2.194-.972 2.194h-.588L4.063 9.41v2.196H2.7l-.258-.625H1.05l-.26.625H.062L1.26 8.805h.995l1.139 2.653V8.805h1.093l.876 1.9.806-1.9h1.115v2.802zm2.736 0H7.784V8.805h2.237v.584H8.453v.505h1.53v.574h-1.53v.56h1.568v.579zm3.154-2.047a.789.789 0 0 1-.472.746.777.777 0 0 1 .332.236c.094.14.11.264.11.514v.55h-.675l-.003-.352c0-.169.017-.411-.105-.546-.098-.099-.247-.12-.488-.12h-.72v1.019h-.669V8.805h1.54c.343 0 .595.01.811.134.212.125.34.308.34.62zm1.072 2.047h-.683V8.805h.683v2.802zm7.927 0h-.949l-1.27-2.103v2.103h-1.363l-.26-.625H16.94l-.253.625h-.783c-.326 0-.738-.072-.971-.31-.236-.238-.358-.56-.358-1.07 0-.415.073-.795.36-1.095.217-.224.556-.327 1.018-.327h.648v.6h-.634c-.245 0-.383.037-.516.166-.114.118-.192.341-.192.635 0 .3.06.517.184.658.103.11.29.145.467.145h.3l.944-2.204h1.004l1.134 2.65v-2.65h1.02l1.176 1.951v-1.95h.686v2.8zm-22.12.55h1.144l.258-.622h.578l.257.622h2.252v-.476l.2.478h1.17l.2-.485v.483h5.595l-.002-1.021h.108c.076.002.098.01.098.134v.887h2.894v-.238c.233.125.596.238 1.074.238h1.217l.26-.622h.578l.255.622h2.346v-.59l.355.59h1.88V8.25h-1.86v.461l-.26-.461h-1.91v.461l-.24-.461h-2.578c-.432 0-.81.06-1.117.228V8.25h-1.78v.228c-.195-.173-.46-.228-.756-.228H5.768l-.436 1.009-.448-1.01H2.836v.462l-.225-.461H.865l-.811 1.857v2.05zm24.826 2.067h-1.22c-.122 0-.203.004-.271.05-.07.046-.098.113-.098.202 0 .106.06.178.146.209.071.024.147.032.258.032l.363.01c.367.008.611.071.76.225.027.021.044.045.062.07v-.798zm0 1.847c-.162.238-.48.359-.908.359h-1.294v-.601h1.288c.128 0 .217-.017.271-.07a.246.246 0 0 0 .08-.182.23.23 0 0 0-.082-.186c-.049-.042-.12-.062-.236-.062-.63-.021-1.414.02-1.414-.867 0-.407.259-.834.961-.834h1.334v-.558h-1.24c-.373 0-.645.09-.837.229v-.23H20.97c-.294 0-.638.074-.8.23v-.23h-3.274v.23c-.26-.188-.7-.23-.903-.23h-2.16v.23c-.206-.2-.664-.23-.943-.23h-2.417l-.553.6-.518-.6h-3.61v3.911h3.542l.57-.608.537.608 2.183.002v-.92h.215c.29.005.631-.007.932-.137v1.055h1.801v-1.019h.087c.111 0 .122.005.122.115v.904h5.47c.348 0 .711-.089.912-.25v.25h1.735c.361 0 .714-.05.982-.18v-.729zm-2.671-1.12c.13.136.2.306.2.595 0 .602-.376.884-1.052.884h-1.304v-.601h1.299c.127 0 .217-.017.274-.07a.249.249 0 0 0 .079-.182.24.24 0 0 0-.082-.186c-.051-.042-.122-.062-.239-.062-.626-.021-1.41.02-1.41-.867 0-.407.255-.834.957-.834h1.343v.596h-1.229c-.121 0-.2.005-.268.05-.073.046-.1.113-.1.202 0 .106.062.178.146.209a.77.77 0 0 0 .26.032l.361.01c.364.008.613.071.765.225zm-6.043-.172c-.09.053-.2.057-.33.057h-.814v-.629h.824c.12 0 .239.003.32.05.087.046.139.133.139.253s-.052.216-.139.269zm.405.349c.149.055.27.153.328.235.094.137.108.264.11.511v.556h-.672v-.35c0-.17.016-.419-.108-.55-.098-.1-.247-.124-.491-.124h-.716v1.024h-.673v-2.803h1.546c.34 0 .586.015.806.133.211.127.344.302.344.622a.785.785 0 0 1-.474.746zm.846-1.5h2.235v.579h-1.569v.51h1.53v.571h-1.53v.558l1.569.002v.582h-2.235v-2.803zm-4.519 1.293h-.865v-.714h.873c.242 0 .41.099.41.344 0 .242-.16.37-.418.37zm-1.532 1.254l-1.028-1.142 1.028-1.105v2.247zm-2.656-.33H7.064v-.557h1.47v-.572h-1.47v-.509h1.679l.732.817-.765.822zm5.325-1.294c0 .778-.581.939-1.167.939h-.835v.94H10.73l-.825-.928-.857.928H6.397v-2.803H9.09l.824.919.852-.919h2.14c.531 0 1.129.148 1.129.924z" fill="#FFFFFF"></path>
</g>
</svg>