<svg xmlns="http://www.w3.org/2000/svg" xmlns:xlink="http://www.w3.org/1999/xlink" width="72" height="16" viewBox="0 0 72 16" version="1.1">
<g>
<path style="stroke: none; fill-rule: nonzero; fill-opacity: 1;" d="M 71.898438 0 L 71.898438 15.914062 L 0 15.914062 L 0 0 Z M 71.898438 0 " fill="#FECC00"></path>
<path style="stroke: none; fill-rule: nonzero; fill-opacity: 1;" d="M 23.179688 6.648438 C 22.867188 7.074219 22.339844 7.816406 22.019531 8.25 C 21.859375 8.46875 21.566406 8.871094 22.539062 8.871094 C 23.566406 8.871094 27.65625 8.871094 27.65625 8.871094 C 27.65625 8.871094 28.484375 7.746094 29.175781 6.804688 C 30.117188 5.523438 29.257812 2.859375 25.890625 2.859375 C 22.882812 2.859375 12.644531 2.859375 12.644531 2.859375 L 10.347656 5.988281 C 10.347656 5.988281 22.253906 5.988281 22.867188 5.988281 C 23.5 5.988281 23.488281 6.226562 23.179688 6.648438 Z M 19.421875 9.644531 C 18.449219 9.644531 18.742188 9.242188 18.902344 9.023438 C 19.222656 8.589844 19.757812 7.855469 20.070312 7.425781 C 20.382812 7.007812 20.390625 6.765625 19.757812 6.765625 C 19.144531 6.765625 14.03125 6.765625 14.03125 6.765625 L 9.417969 13.054688 C 9.417969 13.054688 17.65625 13.054688 20.667969 13.054688 C 24.382812 13.054688 26.453125 10.519531 27.089844 9.644531 C 27.089844 9.644531 20.449219 9.644531 19.421875 9.644531 Z M 26.738281 13.054688 L 33.339844 13.054688 L 35.839844 9.640625 L 29.242188 9.644531 C 29.238281 9.644531 26.738281 13.054688 26.738281 13.054688 Z M 43.765625 2.859375 L 41.234375 6.304688 L 38.289062 6.304688 L 40.820312 2.859375 L 34.222656 2.859375 L 29.808594 8.871094 L 45.949219 8.871094 L 50.363281 2.859375 Z M 36.285156 13.054688 L 42.882812 13.054688 L 45.382812 9.644531 L 38.789062 9.644531 C 38.785156 9.644531 36.285156 13.054688 36.285156 13.054688 Z M 0 10.988281 L 0 11.710938 L 9.191406 11.710938 L 9.722656 10.988281 Z M 10.710938 9.644531 L 0 9.644531 L 0 10.367188 L 10.179688 10.367188 Z M 0 13.054688 L 8.207031 13.054688 L 8.734375 12.332031 L 0 12.332031 Z M 62.210938 11.710938 L 71.898438 11.710938 L 71.898438 10.988281 L 62.742188 10.988281 Z M 61.226562 13.054688 L 71.898438 13.054688 L 71.898438 12.332031 L 61.753906 12.332031 Z M 63.730469 9.644531 L 63.199219 10.367188 L 71.898438 10.367188 L 71.898438 9.644531 Z M 55.085938 8.871094 L 59.5 2.859375 L 52.515625 2.859375 C 52.511719 2.859375 48.097656 8.871094 48.097656 8.871094 Z M 47.53125 9.644531 C 47.53125 9.644531 47.046875 10.304688 46.8125 10.621094 C 45.984375 11.746094 46.71875 13.054688 49.421875 13.054688 C 52.546875 13.054688 60.019531 13.054688 60.019531 13.054688 L 62.523438 9.644531 Z M 47.53125 9.644531 " fill="#D50029"></path>
</g>
</svg>