<svg xmlns:xlink="http://www.w3.org/1999/xlink" xmlns="http://www.w3.org/2000/svg" title="icon--social-facebook" role="img" width="24"  height="24" ><defs><symbol fill="currentColor" viewBox="0 0 24 24" id="icon--social-facebook"><path d="M12 22c5.523 0 10-4.477 10-10S17.523 2 12 2 2 6.477 2 12s4.477 10 10 10m0-22c6.627 0 12 5.373 12 12s-5.373 12-12 12S0 18.627 0 12 5.373 0 12 0zm3.188 6.4H13.53c-1.99 0-2.69.934-2.69 2.508v1.22H9.6v1.874h1.24v5.602h2.483v-5.602h1.657l.22-1.874h-1.877l.003-1.083c0-.504.052-.771.826-.771h1.036V6.4z" fill-rule="evenodd"></path></symbol></defs>
<use xmlns:xlink="http://www.w3.org/1999/xlink" xlink:href="#icon--social-facebook"></use>
</svg>