<svg xmlns:xlink="http://www.w3.org/1999/xlink" xmlns="http://www.w3.org/2000/svg" role="img" width="24"  height="24" ><defs><symbol fill="currentColor" viewBox="0 0 24 24" id="icon--favourite"><path d="M2.182 13.223a7.413 7.413 0 010-10.505C4.767.143 8.919.607 11.998 3.15c3.076-2.542 7.236-3.006 9.819-.433a7.409 7.409 0 01.002 10.502L12.002 23l-9.82-9.777zm18.179-1.457a5.36 5.36 0 00-.003-7.596c-1.86-1.854-5.23-1.297-7.673 1.135l-.732.641-.684-.68C8.868 2.872 5.504 2.313 3.64 4.17a5.364 5.364 0 00.002 7.6l8.358 8.326 8.362-8.33z" fill-rule="evenodd"></path></symbol></defs><title>favourite</title><use xmlns:xlink="http://www.w3.org/1999/xlink" xlink:href="#icon--favourite"></use></svg>