<svg xmlns:xlink="http://www.w3.org/1999/xlink" xmlns="http://www.w3.org/2000/svg" title="icon--close" role="img" width="24"  height="24" ><defs><symbol fill="currentColor" viewBox="0 0 24 24" id="icon--close"><path d="M12 10.49L3.828 2.317a1.063 1.063 0 00-1.513-.002c-.42.42-.416 1.094.002 1.513L10.49 12l-8.173 8.172a1.063 1.063 0 00-.002 1.513c.42.42 1.094.416 1.513-.002L12 13.51l8.172 8.173c.426.426 1.096.42 1.513.002.42-.42.416-1.094-.002-1.513L13.51 12l8.173-8.172c.426-.426.42-1.096.002-1.513a1.067 1.067 0 00-1.513.002L12 10.49z" fill-rule="evenodd"></path></symbol></defs><use xmlns:xlink="http://www.w3.org/1999/xlink" xlink:href="#icon--close"></use></svg>