<svg xmlns:xlink="http://www.w3.org/1999/xlink" xmlns="http://www.w3.org/2000/svg" title="icon--social-instagram" role="img" width="24"  height="24" ><defs><symbol fill="currentColor" viewBox="0 0 24 24" id="icon--social-instagram"><path d="M12 22c5.523 0 10-4.477 10-10S17.523 2 12 2 2 6.477 2 12s4.477 10 10 10m0-22c6.627 0 12 5.373 12 12s-5.373 12-12 12S0 18.627 0 12 5.373 0 12 0zm3.36 6.4H8.64A2.24 2.24 0 006.4 8.64v6.72a2.24 2.24 0 002.24 2.24h6.72a2.24 2.24 0 002.24-2.24V8.64a2.24 2.24 0 00-2.24-2.24zm-6.664 5.04c-.03.18-.056.37-.056.56a3.361 3.361 0 006.72 0c0-.19-.025-.38-.057-.56h1.177v3.92c0 .616-.502 1.12-1.12 1.12H8.64c-.619 0-1.12-.504-1.12-1.12v-3.92h1.176zM12 9.76a2.24 2.24 0 110 4.48 2.24 2.24 0 010-4.48zm3.92-1.68v1.68h-1.68V8.08h1.68z" fill-rule="evenodd"></path></symbol></defs>
<use xmlns:xlink="http://www.w3.org/1999/xlink" xlink:href="#icon--social-instagram"></use>
</svg>