<svg xmlns:xlink="http://www.w3.org/1999/xlink" xmlns="http://www.w3.org/2000/svg" width="108.75" height="20" viewBox="5.167 0 87 16.036">
<path fill="none" d="M-.667-3.46h100v22.958h-100z"></path>
<path fill="#FF5F00" d="M15.334 2.11h6.576v11.817h-6.576z"></path>
<path fill="#EB001B" d="M15.753 8.017a7.503 7.503 0 0 1 2.87-5.908c-3.263-2.566-7.987-2-10.552 1.265a7.515 7.515 0 0 0 10.554 10.553 7.504 7.504 0 0 1-2.87-5.91z"></path>
<path fill="#F79E1B" d="M30.783 8.017a7.516 7.516 0 0 1-12.158 5.91 7.515 7.515 0 0 0-.002-11.819 7.516 7.516 0 0 1 12.16 5.909z"></path>
<path d="M43.712 10.55V7.416c0-1.182-.754-1.977-1.967-1.987a1.935 1.935 0 0 0-1.756.89 1.84 1.84 0 0 0-1.652-.89 1.652 1.652 0 0 0-1.46.743v-.626H35.79v5.002h1.098V7.776c0-.87.48-1.328 1.223-1.328s1.09.47 1.09 1.317v2.782h1.084V7.776c0-.87.5-1.328 1.224-1.328.722 0 1.098.47 1.098 1.317v2.782h1.106zm16.25-5h-1.776V4.035h-1.1V5.55h-1.014v.993h1.014v2.28c0 1.16.45 1.852 1.736 1.852.48.002.95-.132 1.357-.386l-.313-.932c-.29.174-.623.27-.963.28-.543 0-.723-.333-.723-.834V6.542h1.778l.003-.99zm9.274-.124a1.47 1.47 0 0 0-1.316.732V5.55h-1.078v5h1.088V7.745c0-.835.355-1.286 1.066-1.286.234-.003.465.04.682.126l.334-1.025a2.32 2.32 0 0 0-.775-.136v.002zm-14.023.523a3.698 3.698 0 0 0-2.04-.523c-1.265 0-2.087.607-2.087 1.6 0 .815.607 1.317 1.725 1.474l.513.074c.596.083.88.24.88.52 0 .388-.397.608-1.142.608-.6.02-1.187-.164-1.67-.52l-.51.847c.634.44 1.392.67 2.165.647 1.44 0 2.28-.68 2.28-1.63 0-.88-.66-1.338-1.745-1.495l-.512-.073c-.47-.063-.848-.157-.848-.49 0-.366.354-.585.95-.585a3.2 3.2 0 0 1 1.558.428l.485-.884zm29.133-.524a1.47 1.47 0 0 0-1.316.732V5.55h-1.078v5h1.088V7.745c0-.835.355-1.286 1.066-1.286.232-.003.465.04.682.126l.334-1.025a2.337 2.337 0 0 0-.775-.136v.002zM70.336 8.05c0 1.516 1.057 2.624 2.666 2.624a2.612 2.612 0 0 0 1.797-.597l-.522-.88a2.194 2.194 0 0 1-1.307.45c-.868 0-1.505-.64-1.505-1.6 0-.96.64-1.59 1.506-1.6.474.006.93.163 1.308.45l.52-.88a2.618 2.618 0 0 0-1.796-.598c-1.61 0-2.666 1.108-2.666 2.624v.006zm10.184 0V5.544h-1.088v.608a1.903 1.903 0 0 0-1.568-.73c-1.4 0-2.506 1.1-2.506 2.626s1.1 2.624 2.506 2.624a1.895 1.895 0 0 0 1.578-.732v.607h1.088l-.01-2.497zm-4.047 0c0-.88.574-1.6 1.516-1.6.9 0 1.505.69 1.505 1.6s-.605 1.6-1.506 1.6c-.943 0-1.517-.723-1.517-1.6zm-13.12-2.627c-1.462 0-2.49 1.067-2.49 2.625 0 1.59 1.067 2.624 2.563 2.624a3.044 3.044 0 0 0 2.05-.7l-.532-.808c-.416.333-.93.517-1.463.522-.7 0-1.337-.323-1.493-1.223H65.7c.01-.137.02-.27.02-.418 0-1.558-.973-2.625-2.373-2.625l.005.003zm-.023.974c.703 0 1.15.438 1.266 1.213h-2.6c.115-.722.555-1.213 1.328-1.213h.006zm27.283 1.65V3.543h-1.088v2.614a1.896 1.896 0 0 0-1.578-.733c-1.4 0-2.506 1.1-2.506 2.625s1.1 2.624 2.507 2.624c.613.026 1.2-.247 1.578-.732v.607h1.088v-2.5zm-4.047 0c0-.878.574-1.6 1.516-1.6.9 0 1.506.692 1.506 1.6s-.605 1.6-1.506 1.6c-.94 0-1.516-.722-1.516-1.6zm-36.723 0V5.543h-1.087v.608a1.904 1.904 0 0 0-1.583-.727c-1.4 0-2.505 1.1-2.505 2.625s1.098 2.624 2.505 2.624a1.901 1.901 0 0 0 1.58-.732v.607h1.086l.003-2.5zm-4.045 0c0-.878.574-1.6 1.516-1.6.9 0 1.505.692 1.505 1.6s-.608 1.6-1.506 1.6c-.946.002-1.52-.72-1.52-1.597l.004-.002z"></path>
</svg>