<svg xmlns:xlink="http://www.w3.org/1999/xlink" xmlns="http://www.w3.org/2000/svg" role="img" width="24"  height="24" ><defs><symbol fill="currentColor" viewBox="0 0 24 24" id="icon--user"><path d="M12 0c6.627 0 12 5.372 12 12 0 6.627-5.373 12-12 12a11.965 11.965 0 01-8.656-3.69l-.04-.035A11.986 11.986 0 010 12C0 5.372 5.372 0 12 0zm1.676 5.413c-.068 0-.07 0-.258.067-.64.227-1.113.327-1.942.341a7.21 7.21 0 00-.56.023c-.844.076-1.145.43-1.145 2.184 0 1.843.279 2.874.914 4.057.056.103.084.155.21.382.116.21.158.286.217.397.114.214.206.4.29.592 1.005 2.28.103 4.356-2.288 5.412-1.221.54-1.846.856-2.535 1.368A9.792 9.792 0 0012 21.866a9.784 9.784 0 005.535-1.71c-.578-.472-1.145-.86-1.652-1.1-1.556-.736-2.51-1.597-2.908-2.735-.323-.929-.216-1.928.276-2.927.17-.347.301-.588.573-1.073.208-.372.232-.414.304-.553.463-.884.63-1.685.63-3.604 0-1.962-.534-2.751-1.082-2.751zM12 2.087c-5.475 0-9.913 4.438-9.913 9.913a9.88 9.88 0 002.803 6.908c1.023-.83 1.777-1.24 3.38-1.95 1.37-.605 1.747-1.47 1.223-2.66a6.825 6.825 0 00-.223-.454l-.2-.367-.223-.404c-.793-1.477-1.163-2.843-1.163-5.045 0-2.802 1.091-4.086 3.043-4.263.212-.02.372-.025.713-.03.58-.01.84-.065 1.278-.22.392-.14.598-.19.958-.19 1.914 0 3.169 1.858 3.169 4.84 0 2.234-.236 3.363-.868 4.57-.086.165-.111.211-.332.606-.255.454-.372.67-.522.975-.258.525-.304.953-.177 1.318.181.52.732 1.016 1.829 1.535.795.376 1.61.956 2.415 1.653A9.87 9.87 0 0021.913 12c0-5.475-4.438-9.913-9.913-9.913z" fill-rule="evenodd"></path></symbol></defs><title>Mijn account</title><use xmlns:xlink="http://www.w3.org/1999/xlink" xlink:href="#icon--user"></use></svg>