<svg xmlns:xlink="http://www.w3.org/1999/xlink" width="80" height="20" viewBox="0 0 80 20" xmlns="http://www.w3.org/2000/svg">
<g fill="none" fill-rule="evenodd">
<path d="M29.814 4.354H25.4a.613.613 0 0 0-.606.518L23.01 16.186a.367.367 0 0 0 .364.424h2.106c.302 0 .559-.219.606-.518l.481-3.051a.612.612 0 0 1 .606-.518h1.396c2.907 0 4.584-1.407 5.022-4.194.198-1.22.009-2.177-.562-2.848-.627-.737-1.74-1.127-3.216-1.127zm.509 4.132c-.242 1.584-1.451 1.584-2.621 1.584h-.666l.467-2.957a.368.368 0 0 1 .363-.31h.306c.796 0 1.548 0 1.936.454.232.27.303.673.215 1.23zm12.68-.051H40.89a.368.368 0 0 0-.364.31l-.093.592-.148-.214c-.457-.664-1.477-.886-2.495-.886-2.335 0-4.33 1.768-4.718 4.249-.202 1.237.085 2.42.787 3.246.644.758 1.566 1.074 2.662 1.074 1.88 0 2.924-1.21 2.924-1.21l-.094.588a.368.368 0 0 0 .363.426h1.903c.302 0 .558-.22.606-.518l1.142-7.232a.366.366 0 0 0-.362-.425zm-2.946 4.113c-.203 1.207-1.162 2.017-2.383 2.017-.614 0-1.104-.197-1.42-.57-.311-.37-.43-.897-.33-1.484.19-1.197 1.164-2.034 2.367-2.034.6 0 1.088.2 1.409.576.322.38.45.91.357 1.495zm14.198-4.113h-2.123a.613.613 0 0 0-.507.27l-2.929 4.313-1.241-4.145a.615.615 0 0 0-.589-.438H44.78a.368.368 0 0 0-.349.487l2.339 6.863-2.199 3.104a.368.368 0 0 0 .3.58h2.12c.202 0 .39-.097.504-.263l7.062-10.193a.368.368 0 0 0-.302-.578z" fill="#253B80"></path>
<path d="M61.285 4.354h-4.413a.613.613 0 0 0-.605.518l-1.784 11.314a.367.367 0 0 0 .362.424h2.265c.21 0 .39-.153.423-.362l.506-3.207a.612.612 0 0 1 .606-.518h1.396c2.907 0 4.584-1.407 5.022-4.194.198-1.22.008-2.177-.563-2.848-.626-.737-1.738-1.127-3.215-1.127zm.51 4.132c-.241 1.584-1.451 1.584-2.621 1.584h-.666l.468-2.957a.366.366 0 0 1 .363-.31h.305c.796 0 1.548 0 1.937.454.231.27.302.673.213 1.23zm12.679-.051h-2.112a.366.366 0 0 0-.363.31l-.093.592-.149-.214c-.457-.664-1.476-.886-2.494-.886-2.335 0-4.329 1.768-4.717 4.249-.201 1.237.084 2.42.786 3.246.645.758 1.565 1.074 2.662 1.074 1.88 0 2.924-1.21 2.924-1.21l-.094.588a.368.368 0 0 0 .364.426h1.902c.302 0 .558-.22.605-.518l1.143-7.232a.368.368 0 0 0-.364-.425zm-2.946 4.113c-.202 1.207-1.162 2.017-2.383 2.017-.613 0-1.104-.197-1.42-.57-.311-.37-.429-.897-.33-1.484.19-1.197 1.164-2.034 2.367-2.034.6 0 1.088.2 1.409.576.323.38.45.91.357 1.495zm5.437-7.883l-1.811 11.52a.367.367 0 0 0 .362.425h1.82c.303 0 .56-.219.607-.518L79.728 4.78a.368.368 0 0 0-.362-.425h-2.039a.369.369 0 0 0-.362.31z" fill="#179BD7"></path>
<path d="M4.688 18.809l.337-2.143-.751-.018H.684L3.18.834A.204.204 0 0 1 3.382.66h6.05c2.01 0 3.396.418 4.12 1.243.34.387.556.791.66 1.237.11.467.112 1.025.005 1.705l-.008.05v.436l.34.193c.285.151.512.325.686.523.29.331.479.752.558 1.25.082.514.055 1.124-.08 1.815-.154.795-.405 1.487-.743 2.053a4.224 4.224 0 0 1-1.177 1.29c-.45.32-.983.561-1.586.716a7.908 7.908 0 0 1-1.982.23h-.47c-.338 0-.665.12-.921.338a1.426 1.426 0 0 0-.48.857l-.036.193-.596 3.777-.027.139c-.007.044-.02.066-.038.08a.1.1 0 0 1-.062.023H4.688z" fill="#253B80"></path>
<path d="M14.87 4.946c-.018.116-.039.234-.062.355-.798 4.098-3.529 5.513-7.016 5.513H6.017a.862.862 0 0 0-.852.73l-.91 5.766-.257 1.634a.454.454 0 0 0 .448.525h3.15c.372 0 .69-.27.748-.639l.03-.16.594-3.762.038-.207a.757.757 0 0 1 .748-.64h.471c3.051 0 5.44-1.238 6.138-4.823.291-1.497.14-2.748-.631-3.627a3.01 3.01 0 0 0-.862-.665z" fill="#179BD7"></path>
<path d="M14.035 4.614a6.295 6.295 0 0 0-.776-.173 9.86 9.86 0 0 0-1.565-.114H6.95a.753.753 0 0 0-.747.64l-1.01 6.391-.028.187a.862.862 0 0 1 .852-.73h1.775c3.487 0 6.218-1.417 7.016-5.514.024-.121.044-.24.062-.355a4.254 4.254 0 0 0-.835-.332z" fill="#222D65"></path>
<path d="M6.203 4.967a.754.754 0 0 1 .747-.64h4.744a9.86 9.86 0 0 1 1.565.115 6.295 6.295 0 0 1 .955.228c.236.078.454.17.656.276.238-1.514-.002-2.545-.82-3.478C13.147.44 11.518 0 9.434 0H3.382a.865.865 0 0 0-.855.731L.007 16.708a.52.52 0 0 0 .512.602h3.736l.939-5.952 1.009-6.39z" fill="#253B80"></path>
</g>
</svg>