<svg xmlns:xlink="http://www.w3.org/1999/xlink" xmlns="http://www.w3.org/2000/svg" viewBox="0 0 80 80" width="80"  height="80" >
  <g>
    <g>
      <linearGradient gradientUnits="userSpaceOnUse" x1="40" x2="40" y2="80">
        <stop offset="0" stop-color="#FC9C76"></stop>
        <stop offset=".1389" stop-color="#FDAC7A"></stop>
        <stop offset=".49" stop-color="#FFEB89"></stop>
        <stop offset="1" stop-color="#FFEB89"></stop>
      </linearGradient>
      <circle class="head" cx="40" cy="40" r="40" fill="#FFFFFF"></circle>
    </g>
    <path class="head-outline" d="M40,1.6c21,0,38,17,38,38s-17,38-38,38s-38-17-38-38S19,1.6,40,1.6 M40-0.4
    c-22.1,0-40,17.9-40,40s17.9,40,40,40s40-17.9,40-40S62.1-0.4,40-0.4L40-0.4z" stroke="#727272" fill="#727272" stroke-width="2px"></path>
    <g>
      <circle class="eyes" cx="62.1" cy="41.4" r="3.9" fill="#727272"></circle>
      <circle class="eyes" cx="17.9" cy="41.4" r="3.9" fill="#727272"></circle>
    </g>
    <g>
      <path class="eyebrows" d="M55.4 38.5c-.1 0-.2 0-.4-.1-.6-.2-1-.9-.8-1.5 1.2-3.7 4.2-5.5 6.6-5.9 2.2-.4 4.3.2 5.4 1.6.4.5.3 1.3-.2 1.7-.5.4-1.3.3-1.7-.2-.6-.7-1.8-1-3.2-.8-1.7.3-3.9 1.6-4.7 4.3 0 .5-.5.9-1 .9z" fill="#727272"></path>
      <path class="eyebrows" d="M24.7 38.5c-.5 0-1-.3-1.1-.8-.9-2.7-3-4-4.7-4.3-1.3-.3-2.6 0-3.2.8-.4.5-1.2.6-1.7.2-.5-.4-.6-1.2-.2-1.7 1.2-1.4 3.2-2 5.4-1.6 2.4.5 5.4 2.3 6.6 5.9.2.6-.1 1.3-.8 1.5-.1-.1-.2 0-.3 0z" fill="#727272"></path>
    </g>
    <path class="mouth" d="M33.5 57.5c-.1 0-.3 0-.4-.1-.6-.2-.9-.9-.7-1.5.9-2.7 3.7-4.4 7-4.4 3.4 0 6.2 1.7 7.2 4.4.2.6-.1 1.3-.7 1.5-.6.2-1.3-.1-1.5-.7-.8-2.1-3.2-2.8-4.9-2.8-1.8 0-4.1.7-4.8 2.8-.2.5-.7.8-1.2.8z" fill="#727272"></path>
  </g>
</svg>