<svg xmlns="http://www.w3.org/2000/svg" xmlns:xlink="http://www.w3.org/1999/xlink" viewBox="0 0 80 80" width="80"  height="80" >
  <g>
    <g>
      <circle class="head" cx="40" cy="40" r="40" fill="#FFFFFF"></circle>
    </g>
    <path class="head-outline" d="M40,1.6c21,0,38,17,38,38s-17,38-38,38s-38-17-38-38S19,1.6,40,1.6 M40-0.4
    c-22.1,0-40,17.9-40,40s17.9,40,40,40s40-17.9,40-40S62.1-0.4,40-0.4L40-0.4z" stroke="#727272" fill="#727272" stroke-width="2px"></path>
    <g>
      <path class="eyebrows" d="M10.4 30s-.1 0 0 0c-.7 0-1.2-.1-1.2-.7.1-2.8 2.3-5.1 5.5-6.1s6.3-.1 8.1 2.1c.4.5.3 1.3-.2 1.7-.5.4-1.3.3-1.7-.2-1.3-1.7-3.8-1.7-5.4-1.2-1.7.5-3.7 1.5-3.8 3.7-.2.7-.7.7-1.3.7z" fill="#727272"></path>
      <path class="eyebrows" d="M69.6 30c-.6 0-1.2 0-1.2-.7-.1-2.2-2.1-3.4-3.8-3.9-1.7-.5-4.1-.4-5.4 1.3-.4.5-1.2.7-1.7.3-.5-.4-.6-1.1-.2-1.6 1.7-2.2 4.9-3 8.1-2 3.2 1 5.4 3 5.5 5.9 0 .6-.6.7-1.3.7.1 0 0 0 0 0z" fill="#727272"></path>
    </g>
    <g class="big-mouth-group" stroke="#727272">
      <defs>
        <path id="big-mouth-inner" d="M22.9 51h33.3c0 17-16.6 17.3-16.6 17.3S22.9 68 22.9 51z"></path>
      </defs>
      <path d="M22.9 51h33.3c0 17-16.6 17.3-16.6 17.3S22.9 68 22.9 51z" overflow="visible" fill="#000000" class="big-mouth-bg" stroke="#727272" fill-opacity="0.1"></path>
      <clipPath stroke="#727272">
        <path d="M22.9 51h33.3c0 17-16.6 17.3-16.6 17.3S22.9 68 22.9 51z" overflow="visible" stroke="#727272"></path>
      </clipPath>
      <path class="big-mouth" d="M22.9 51h33.3v3.6H23z" stroke="#727272" fill="#FFFFFF"></path>
    </g>
    <g>
      <circle class="eyes" cx="62.1" cy="37.8" r="3.9" fill="#727272"></circle>
      <circle class="eyes" cx="17.9" cy="37.8" r="3.9" fill="#727272"></circle>
    </g>
  </g>
</svg>