<svg xmlns:xlink="http://www.w3.org/1999/xlink" xmlns="http://www.w3.org/2000/svg" viewBox="0 0 80 80" width="80"  height="80" >
  <g>
    <g>
      <circle class="head" cx="40" cy="40" r="40" fill="#FFFFFF"></circle>
    </g>
    <path class="head-outline" d="M40,1.6c21,0,38,17,38,38s-17,38-38,38s-38-17-38-38S19,1.6,40,1.6 M40-0.4
    c-22.1,0-40,17.9-40,40s17.9,40,40,40s40-17.9,40-40S62.1-0.4,40-0.4L40-0.4z" stroke="#727272" fill="#727272" stroke-width="2px"></path>
    <path class="mouth" d="M39.5 66h-.2c-7.8 0-14.7-4.2-18.4-10.8-.3-.6-.1-1.4.4-1.8.6-.3 1.3-.7 1.6-.1 3.3 5.8 9.4 8.7 16.3 8.7h.1c7 0 13.2-2.9 16.6-8.8.3-.6 1.1-.5 1.6-.2.6.3.8 1.5.4 2.1C54.4 61.7 47.4 66 39.5 66z" fill="#727272"></path>
    <g>
      <path class="eyebrows" d="M9.8 30c-.7 0-1.2-.1-1.2-.7.1-2.8 2.3-5.1 5.5-6.1s6.3-.1 8.1 2.1c.4.5.3 1.3-.2 1.7-.5.4-1.3.3-1.7-.2-1.3-1.7-3.8-1.7-5.4-1.2-1.7.5-3.7 1.5-3.8 3.7-.1.7-.6.7-1.3.7z" fill="#727272"></path>
      <path class="eyebrows" d="M69.1 30c-.6 0-1.2 0-1.2-.7-.1-2.2-2.1-3.4-3.8-3.9-1.7-.5-4.1-.4-5.4 1.3-.4.5-1.2.7-1.7.3-.5-.4-.6-1.1-.2-1.6 1.7-2.2 4.9-3 8.1-2 3.2 1 5.4 3 5.5 5.9-.1.6-.6.7-1.3.7z" fill="#727272"></path>
    </g>
    <g>
      <circle class="eyes" cx="62.1" cy="37.8" r="3.9" fill="#727272"></circle>
      <circle class="eyes" cx="17.9" cy="37.8" r="3.9" fill="#727272"></circle>
    </g>
  </g>
</svg>