<svg xmlns:xlink="http://www.w3.org/1999/xlink" xmlns="http://www.w3.org/2000/svg" viewBox="0 0 80 80" width="80"  height="80" >
  <g>
    <g>
      <circle class="head" cx="40" cy="40" r="40" fill="#FFFFFF"></circle>
    </g>
    <path class="head-outline" d="M40,1.6c21,0,38,17,38,38s-17,38-38,38s-38-17-38-38S19,1.6,40,1.6 M40-0.4
    c-22.1,0-40,17.9-40,40s17.9,40,40,40s40-17.9,40-40S62.1-0.4,40-0.4L40-0.4z" stroke="#727272" fill="#727272" stroke-width="2px"></path>
    <g>
      <path class="eyebrows" d="M19.7 32.9c-2.1 0-3.9-1-4.9-2.7-.3-.6-.1-1.3.4-1.6.6-.3 1.3-.1 1.6.4.9 1.5 2.6 1.7 3.8 1.4 1.2-.3 2.7-1.2 2.9-2.9.1-.7.6-1.1 1.3-1.1.7.1 1.1.7 1.1 1.3-.2 2.5-2.1 4.5-4.8 5-.4.1-.9.2-1.4.2z" fill="#727272"></path>
      <path class="eyebrows" d="M60.4 32.9c-.5 0-1-.1-1.5-.2-2.7-.6-4.5-2.6-4.8-5-.1-.7.4-1.2 1.1-1.3.7-.1 1.2.4 1.3 1.1.2 1.7 1.7 2.7 2.9 2.9 1.2.3 2.9.1 3.8-1.4.3-.6 1.1-.8 1.6-.4.6.3.8 1.1.4 1.6-.9 1.7-2.7 2.7-4.8 2.7z" fill="#727272"></path>
    </g>
    <path class="mouth" d="M34 58c-.1 0-.3 0-.4-.1-.6-.2-.9-.9-.7-1.5.9-2.7 3.7-4.4 7.1-4.4 3.4 0 6.2 1.7 7.1 4.4.2.6-.1 1.3-.7 1.5-.6.2-1.3-.3-1.5-.9-.8-2.1-3.1-3-4.9-3-1.8 0-4.1 1-4.8 3-.2.5-.7 1-1.2 1z" fill="#727272"></path>
    <g>
      <path class="eyes" d="M62.2 44c-3.4 0-6.2-1.3-7.1-4-.2-.6.1-1.1.7-1.3.6-.2 1.3 0 1.5.6.8 2.1 3.1 2.7 4.9 2.7 1.8 0 4.1-.5 4.8-2.6.2-.6.9-.8 1.5-.6.6.2 1 .5.7 1.2-.8 2.6-3.6 4-7 4z" fill="#727272"></path>
      <path class="eyes" d="M17.9 44c-3.4 0-6.2-1.3-7.1-4-.2-.6.1-1.1.7-1.3.6-.2 1.3 0 1.5.6.8 2.1 3.1 2.7 4.9 2.7 1.8 0 4.1-.5 4.8-2.6.2-.6.9-.8 1.5-.6.6.2.9.5.7 1.2-.8 2.6-3.6 4-7 4z" fill="#727272"></path>
    </g>
  </g>
</svg>