<svg xmlns:xlink="http://www.w3.org/1999/xlink" xmlns="http://www.w3.org/2000/svg" title="icon--social-twitter" role="img" width="24"  height="24" ><defs><symbol fill="currentColor" viewBox="0 0 24 24" id="icon--social-twitter"><path d="M12 22c5.523 0 10-4.477 10-10S17.523 2 12 2 2 6.477 2 12s4.477 10 10 10m0-22c6.627 0 12 5.373 12 12s-5.373 12-12 12S0 18.627 0 12 5.373 0 12 0zm2.708 7.2c-1.36 0-2.462 1.086-2.462 2.424 0 .186.021.372.063.552a7.038 7.038 0 01-5.074-2.532c-.212.36-.333.774-.333 1.218 0 .84.434 1.584 1.095 2.016a2.42 2.42 0 01-1.115-.306v.036c0 1.17.849 2.148 1.975 2.376a2.562 2.562 0 01-.649.084 2.36 2.36 0 01-.463-.048 2.456 2.456 0 002.3 1.686A5.002 5.002 0 016.4 15.708a7.031 7.031 0 003.774 1.092c4.529 0 7.005-3.696 7.005-6.894 0-.108-.002-.21-.007-.318.48-.342.897-.768 1.228-1.254a5.056 5.056 0 01-1.414.384c.508-.3.898-.774 1.082-1.344a5.016 5.016 0 01-1.563.594 2.467 2.467 0 00-1.797-.768z" fill-rule="evenodd"></path></symbol></defs>
<use xmlns:xlink="http://www.w3.org/1999/xlink" xlink:href="#icon--social-twitter"></use>
</svg>