<svg xmlns:xlink="http://www.w3.org/1999/xlink" width="60" height="20" viewBox="0 0 60 20" xmlns="http://www.w3.org/2000/svg">
<g fill="none" fill-rule="evenodd">
<path fill="#005B9C" d="M25.968 19.42H21.1L24.142.726h4.867L25.968 19.42M17.007.728l-4.64 12.856-.549-2.769.001.001-1.638-8.405S9.984.728 7.873.728H.202l-.09.316s2.346.488 5.09 2.137L9.43 19.419h5.071L22.244.727h-5.237m32.923 12.08l2.557-6.995 1.438 6.995H49.93zm5.355 6.612h4.468L55.857.727h-3.913c-1.806 0-2.246 1.393-2.246 1.393l-7.258 17.3h5.073l1.015-2.777h6.186l.57 2.776zM42.821 5.223l.694-4.015S41.372.393 39.138.393c-2.415 0-8.15 1.056-8.15 6.188 0 4.83 6.731 4.89 6.731 7.425s-6.037 2.082-8.029.483l-.724 4.197s2.172 1.055 5.493 1.055 8.331-1.72 8.331-6.399c0-4.86-6.79-5.313-6.79-7.426 0-2.113 4.74-1.841 6.822-.694"></path>
<path d="M11.819 10.816l-1.638-8.405S9.984.728 7.873.728H.202l-.09.316S3.8 1.808 7.337 4.67c3.38 2.736 4.483 6.146 4.483 6.146" fill="#EFA03F"></path>
</g>
</svg>