<svg xmlns:xlink="http://www.w3.org/1999/xlink" xmlns="http://www.w3.org/2000/svg" title="icon--social-whatsapp" role="img" width="24"  height="24" ><defs><symbol fill="currentColor" viewBox="0 0 24 24" id="icon--social-whatsapp"><path d="M12 0c6.627 0 12 5.373 12 12s-5.373 12-12 12c-2.337 0-4.517-.668-6.362-1.823L.042 23.514l2.053-4.738A11.944 11.944 0 010 12C0 5.373 5.373 0 12 0zm0 1.6C6.256 1.6 1.6 6.256 1.6 12c0 2.479.867 4.755 2.315 6.542L2.8 21.114l3.048-.728A10.354 10.354 0 0012 22.4c5.744 0 10.4-4.656 10.4-10.4 0-5.744-4.656-10.4-10.4-10.4zm-3.19 5a.72.72 0 01.621.346l1.618 2.08a.722.722 0 01.215.52.72.72 0 01-.109.38l-.072.09-.063.063-.214.212-.287.285a.492.492 0 00-.156.358c0 .126.049.247.192.411.578.8 1.283 1.5 2.17 2.149a.493.493 0 00.34.137c.126 0 .25-.05.37-.166-.01.008.546-.551.546-.551l.088-.07a.725.725 0 01.905.107l2.073 1.61a.722.722 0 01.35.625v.012l.002.066c-.06 1.048-1.268 2.136-2.575 2.136-.38 0-.752-.084-1.097-.248l-.099-.037a15.547 15.547 0 01-6.741-6.74l-.037-.096a2.56 2.56 0 01-.25-1.102C6.6 7.84 7.747 6.6 8.81 6.6z" fill-rule="evenodd"></path></symbol></defs>
<use xmlns:xlink="http://www.w3.org/1999/xlink" xlink:href="#icon--social-whatsapp"></use>
</svg>