<svg xmlns:xlink="http://www.w3.org/1999/xlink" xmlns="http://www.w3.org/2000/svg" role="img" width="24"  height="24" ><defs><symbol fill="currentColor" viewBox="0 0 24 24" id="icon--basket"><path d="M5 22h14V6H5v16zm7-22a4.003 4.003 0 014 4h3.005C20.107 4 21 4.89 21 5.997v16.006A1.996 1.996 0 0119.005 24H4.995A1.994 1.994 0 013 22.003V5.997C3 4.894 3.893 4 4.995 4H8l.006-.193A4.006 4.006 0 0112 0zm7 18H5v2h14v-2zM10 6H8v2h2V6zm6 0h-2v2h2V6zm-4-4c-1.1 0-1.997.896-2 2h3.999l-.004-.143A2.003 2.003 0 0012 2z" fill-rule="evenodd"></path></symbol></defs><title>Winkelmand</title><use xmlns:xlink="http://www.w3.org/1999/xlink" xlink:href="#icon--basket"></use></svg>