<svg xmlns:xlink="http://www.w3.org/1999/xlink" xmlns="http://www.w3.org/2000/svg" role="img" width="24"  height="24" ><defs><symbol fill="currentColor" viewBox="0 0 24 24" id="icon--arrow-pointer__left"><path d="M.424 11.183l3.935-3.904a.966.966 0 011.36 0 .948.948 0 01.08 1.26l-.08.09L3.327 11H23a1 1 0 01.993.883L24 12a1 1 0 01-.883.993L23 13H3.328l2.39 2.372a.948.948 0 01.08 1.259l-.08.09a.967.967 0 01-1.268.079l-.09-.08-3.936-3.903a1 1 0 01-.407-.63l-.013-.102L0 11.981l.007-.1.011-.067a.995.995 0 01.406-.631l3.935-3.904-3.935 3.904z" fill-rule="evenodd"></path></symbol></defs><title>arrow-pointer__left</title><use xmlns:xlink="http://www.w3.org/1999/xlink" xlink:href="#icon--arrow-pointer__left" stroke="#000000" stroke-width="0px"></use></svg>