<svg xmlns:xlink="http://www.w3.org/1999/xlink" xmlns="http://www.w3.org/2000/svg" role="img" width="24"  height="24" ><defs><symbol fill="currentColor" viewBox="0 0 24 24" id="icon--box-return"><path d="M20.499 3a2 2 0 011.873 1.298l1.5 4A2 2 0 0122 11h.007v8a2 2 0 01-2 2H6a2 2 0 01-2-2V5a2 2 0 012-2H20.5zm-6.495 2H6.001v1h-2v12h2v1h8.003V5zm2 3.657V19h4.002v-8H18.27a2 2 0 01-1.873-1.298l-.393-1.045zM20.5 5h-3.73l1.5 4H22l-1.5-4zM0 11.995c.006-.27.102-.53.29-.725l2.84-2.968a.963.963 0 011.408.007c.391.408.389 1.072.007 1.47L3.38 10.996h7.627c.518 0 .943.414.989.95.003.004.004.009.004.013v.081c0 .005-.001.01-.004.015-.046.535-.471.949-.99.949H3.38l1.165 1.217a1.078 1.078 0 01-.007 1.47.963.963 0 01-1.407.007L.289 12.73A1.072 1.072 0 010 12.006v-.011z" fill-rule="evenodd"></path></symbol></defs><title>box-return</title><use xmlns:xlink="http://www.w3.org/1999/xlink" xlink:href="#icon--box-return" stroke="#000000" stroke-width="0px"></use></svg>