<svg xmlns:xlink="http://www.w3.org/1999/xlink" xmlns="http://www.w3.org/2000/svg" title="icon--phone" role="img" width="24"  height="24" ><defs><symbol fill="currentColor" viewBox="0 0 24 24" id="icon--phone"><path d="M17.583 21.71c2.303 0 4.05-1.972 4.125-3.31a.938.938 0 01-.005-.097c0-.175-.09-.29-.142-.343a.508.508 0 00-.087-.065 1.03 1.03 0 01-.082-.057l-4.112-3.197a1.027 1.027 0 01-.09-.08.486.486 0 00-.343-.143.454.454 0 00-.243.072l-1.088 1.096a.775.775 0 01-.055.051c-.362.357-.851.56-1.358.56-.505 0-.986-.199-1.345-.543a19.538 19.538 0 01-4.438-4.427 1.944 1.944 0 01.083-2.754l1.096-1.09a.453.453 0 00.07-.241.482.482 0 00-.142-.344.888.888 0 01-.08-.09L6.15 2.595a1.053 1.053 0 01-.055-.08.516.516 0 00-.066-.088.482.482 0 00-.343-.143c-1.337 0-3.4 1.773-3.4 4.128 0 .609.135 1.201.4 1.762.026.054.047.11.062.167a29.786 29.786 0 0012.912 12.91.99.99 0 01.162.058c.56.265 1.153.4 1.762.4zm-3.54-7.945l1.126-1.073.224-.14c.434-.271.934-.42 1.454-.42.774 0 1.4.295 1.888.745l4.008 3.118a2.716 2.716 0 011.245 2.309c0-.044-.002-.09-.007-.14l.019.182-.01.184c-.158 2.784-3.14 5.466-6.407 5.466-.91 0-1.8-.194-2.619-.564l-.127-.034-.217-.11A32.071 32.071 0 01.711 9.38l-.11-.215-.033-.126A6.367 6.367 0 010 6.413C0 3.061 2.834 0 5.685 0c.822 0 1.487.335 1.959.812.135.134.247.277.348.43l3.116 4.006c.445.473.747 1.113.747 1.894 0 .515-.145 1.012-.413 1.445l-.142.229-.191.19-.917.907a17.22 17.22 0 003.852 3.852z" fill-rule="evenodd"></path></symbol></defs>
<use xmlns:xlink="http://www.w3.org/1999/xlink" xlink:href="#icon--phone" stroke="#000000" stroke-width="0px"></use>
</svg>