<svg xmlns:xlink="http://www.w3.org/1999/xlink" xmlns="http://www.w3.org/2000/svg" title="icon--social-pinterest" role="img" width="24"  height="24" ><defs><symbol fill="currentColor" viewBox="0 0 24 24" id="icon--social-pinterest"><path d="M12 22c5.523 0 10-4.477 10-10S17.523 2 12 2 2 6.477 2 12s4.477 10 10 10m0-22c6.627 0 12 5.373 12 12s-5.373 12-12 12S0 18.627 0 12 5.373 0 12 0zm.23 5.601l-.83.104c-.521.13-1.09.247-1.51.494-1.125.663-1.904 1.43-2.426 2.678-.085.202-.088.397-.15.618-.4 1.456.31 2.964 1.17 3.484.167.104.544.28.682.046.076-.13.06-.306.106-.455.031-.104.13-.293.107-.416-.039-.215-.266-.351-.362-.52-.194-.345-.204-.657-.298-1.119l.021-.188c.029-.52.117-.897.277-1.268.47-1.085 1.226-1.69 2.447-2.047.273-.085 1.043-.215 1.447-.124.242.04.483.078.723.124.875.273 1.511.78 1.852 1.573.213.494.276 1.443.128 2.073-.07.3-.06.56-.15.832-.33 1.008-.816 1.938-1.915 2.198a1.233 1.233 0 01-1.447-.728c-.05-.124-.134-.351-.085-.56.192-.819.469-1.547.681-2.366.203-.773-.182-1.384-.787-1.534-.753-.175-1.334.52-1.532.975-.158.364-.253 1.034-.128 1.515.04.156.224.565.192.709-.146.63-.31 1.306-.49 1.924-.186.643-.287 1.306-.468 1.93-.083.286-.08.592-.149.89v.436c-.062.273-.016.767.043 1.034.037.175-.022.39.064.52a.279.279 0 00.042.169c.267-.007.633-.709.766-.917.253-.39.488-.806.681-1.26.174-.41.202-.872.34-1.307.1-.319.243-.69.277-1.04h.022c.055.195.255.331.404.435.468.338 1.274.644 2.149.436.99-.234 1.78-.696 2.298-1.385.383-.513.672-1.098.894-1.768.11-.325.132-.689.213-1.034.203-.87-.067-1.917-.32-2.49-.763-1.722-2.386-2.71-4.979-2.67z" fill-rule="evenodd"></path></symbol></defs>
<use xmlns:xlink="http://www.w3.org/1999/xlink" xlink:href="#icon--social-pinterest" stroke="#000000" stroke-width="0px"></use>
</svg>