<svg xmlns:xlink="http://www.w3.org/1999/xlink" xmlns="http://www.w3.org/2000/svg" title="icon--social-youtube" role="img" width="24"  height="24" ><defs><symbol fill="currentColor" viewBox="0 0 24 24" id="icon--social-youtube"><path d="M12 22c5.523 0 10-4.477 10-10S17.523 2 12 2 2 6.477 2 12s4.477 10 10 10m0-22c6.627 0 12 5.373 12 12s-5.373 12-12 12S0 18.627 0 12 5.373 0 12 0zm.003 7.2h-.006s-3.023 0-5.038.147c-.282.033-.895.036-1.443.614-.432.44-.572 1.44-.572 1.44S4.8 10.573 4.8 11.746v1.1c0 1.174.144 2.348.144 2.348s.14.999.572 1.439c.548.578 1.268.56 1.588.62 1.075.104 4.408.141 4.848.145h.19c.622-.003 3.144-.023 4.899-.15.281-.034.895-.037 1.443-.615.431-.44.572-1.44.572-1.44s.144-1.173.144-2.346v-1.1c0-1.174-.144-2.348-.144-2.348s-.14-1-.572-1.44c-.548-.577-1.162-.58-1.443-.613-2.015-.147-5.038-.147-5.038-.147zm-1.49 2.906l3.89 2.045-3.89 2.03v-4.075z" fill-rule="evenodd"></path></symbol></defs>
<use xmlns:xlink="http://www.w3.org/1999/xlink" xlink:href="#icon--social-youtube" stroke="#000000" stroke-width="0px"></use>
</svg>