<svg xmlns:xlink="http://www.w3.org/1999/xlink" xmlns="http://www.w3.org/2000/svg" title="icon--chat" role="img" width="24"  height="24" ><defs><symbol fill="currentColor" viewBox="0 0 24 24" id="icon--chat"><path d="M12 0c6.616 0 12 4.791 12 10.735 0 5.944-5.384 10.735-12 10.735a13.35 13.35 0 01-3.253-.407L1.996 24l1.277-5.904C1.188 16.12 0 13.513 0 10.735 0 4.79 5.384 0 12 0zm0 2C6.474 2 2 5.937 2 10.738c0 2.224.968 4.349 2.734 5.986.385.355.555.917.44 1.452L4.611 20.8l3.708-1.631a1.211 1.211 0 01.811-.067c.946.249 1.912.375 2.869.375 5.526 0 10-3.938 10-8.739S17.526 2 12 2zm5 7a1.5 1.5 0 110 3 1.5 1.5 0 010-3zm-5 0a1.5 1.5 0 110 3 1.5 1.5 0 010-3zM7 9a1.5 1.5 0 110 3 1.5 1.5 0 010-3z" fill-rule="evenodd"></path></symbol></defs>
<use xmlns:xlink="http://www.w3.org/1999/xlink" xlink:href="#icon--chat" stroke="#000000" stroke-width="0px"></use>
</svg>