<svg xmlns:xlink="http://www.w3.org/1999/xlink" xmlns="http://www.w3.org/2000/svg" role="img" width="24"  height="24" ><defs><symbol fill="currentColor" viewBox="0 0 24 24" id="icon--locationpin"><path d="M12 4a5 5 0 110 10 5 5 0 01-5-5 5 5 0 015-5zm0 2a3 3 0 100 6 3 3 0 100-6zm0-6c4.975 0 9 3.972 9 8.864 0 .814-.115 1.655-.335 2.52-.6 2.363-1.957 4.836-3.84 7.333a39.413 39.413 0 01-3.73 4.257c-.17.167-.294.285-.364.35L12 24l-.731-.676a35.63 35.63 0 01-1.29-1.297 39.413 39.413 0 01-2.804-3.31c-1.883-2.497-3.24-4.97-3.84-7.332A10.23 10.23 0 013 8.865C3 3.971 7.024 0 12 0zm.468 20.523a37.444 37.444 0 002.701-3.124c1.764-2.292 3.02-4.537 3.553-6.589A8.068 8.068 0 0019 8.788C19 5.034 15.862 2 12 2S5 5.034 5 8.788c0 .638.094 1.314.278 2.022.532 2.052 1.79 4.297 3.553 6.59A37.444 37.444 0 0012 21c.15-.15.305-.308.468-.477z" fill-rule="evenodd"></path></symbol></defs><title>locationpin</title><use xmlns:xlink="http://www.w3.org/1999/xlink" xlink:href="#icon--locationpin" stroke="#000000" stroke-width="0px"></use></svg>