<svg xmlns:xlink="http://www.w3.org/1999/xlink" xmlns="http://www.w3.org/2000/svg" role="img" width="24"  height="24" ><defs><symbol fill="currentColor" viewBox="0 0 24 24" id="icon--time"><path d="M12 2C6.477 2 2 6.477 2 12s4.477 10 10 10c5.522 0 10-4.478 10-10 0-5.523-4.477-10-10-10zm0-2c6.627 0 12 5.372 12 12 0 6.627-5.373 12-12 12-6.628 0-12-5.373-12-12C0 5.372 5.372 0 12 0zm-.974 12.23a.99.99 0 00.965.77h4.018A1 1 0 0017 12l-.007-.117A.992.992 0 0016.01 11H13V3.995c0-.5-.386-.93-.883-.988L12 3l-.117.007a.994.994 0 00-.883.988V12c0 .037.002.074.006.11v.009zm4.43-6.364a1 1 0 111-1.732 1 1 0 01-1 1.732zM18.135 8.5a1 1 0 111.732-1 1 1 0 01-1.732 1zM19 12a1 1 0 112 0 1 1 0 01-2 0zm-.866 3.5a1 1 0 111.732 1 1 1 0 01-1.732-1zm-2.677 2.634a1 1 0 111 1.732 1 1 0 01-1-1.732zM12 19a1 1 0 110 2 1 1 0 010-2zm-3.5-.866a1 1 0 11-1 1.732 1 1 0 011-1.732zM5.866 15.5a1 1 0 11-1.732 1 1 1 0 011.732-1zM5 12a1 1 0 11-2 0 1 1 0 012 0zm.866-3.5a1 1 0 11-1.732-1 1 1 0 011.732 1zM8.5 5.866a1 1 0 11-1-1.732 1 1 0 011 1.732z" fill-rule="evenodd"></path></symbol></defs><title>time</title><use xmlns:xlink="http://www.w3.org/1999/xlink" xlink:href="#icon--time" stroke="#000000" stroke-width="0px"></use></svg>