<svg xmlns:xlink="http://www.w3.org/1999/xlink" xmlns="http://www.w3.org/2000/svg" role="img" width="24"  height="24" ><defs><symbol fill="currentColor" viewBox="0 0 24 24" id="icon--zoom-in"><path d="M10.5 0C16.299 0 21 4.701 21 10.5c0 2.493-.87 4.784-2.321 6.585l4.99 4.991a1.127 1.127 0 01-1.494 1.682l-.099-.088-4.991-4.991A10.456 10.456 0 0110.5 21C4.701 21 0 16.299 0 10.5S4.701 0 10.5 0zm0 2a8.5 8.5 0 100 17 8.5 8.5 0 000-17zm0 3.5c.552 0 1 .456 1 .995V9.5h3.005c.51 0 .93.383.988.883l.007.117c0 .552-.456 1-.995 1H11.5v3.005c0 .51-.383.93-.883.988l-.117.007c-.552 0-1-.456-1-.995V11.5H6.495a.995.995 0 01-.995-1c0-.552.456-1 .995-1H9.5V6.495c0-.55.444-.995 1-.995z" fill-rule="evenodd"></path></symbol></defs><title>zoom-in</title><use xmlns:xlink="http://www.w3.org/1999/xlink" xlink:href="#icon--zoom-in" stroke="#000000" stroke-width="0px"></use></svg>